<?xml version="1.0" encoding="utf-8"?>
<!-- Generator: Adobe Illustrator 16.0.0, SVG Export Plug-In . SVG Version: 6.00 Build 0)  -->
<!DOCTYPE svg PUBLIC "-//W3C//DTD SVG 1.1//EN" "http://www.w3.org/Graphics/SVG/1.1/DTD/svg11.dtd">
<svg version="1.1" id="Calque_1" xmlns="http://www.w3.org/2000/svg" xmlns:xlink="http://www.w3.org/1999/xlink" x="0px" y="0px"
	 width="200px" height="200px" viewBox="0 0 200 200" enable-background="new 0 0 200 200" xml:space="preserve">
<path fill="#1D1D1B" d="M199.682,4.739c-0.003-0.06-0.025-0.104-0.035-0.156c0.036-0.184,0.039-0.376,0.008-0.561
	c0.032-0.017,0.064-0.033,0.097-0.05c0.355-0.195,0.113-0.811-0.281-0.668c-0.047,0.018-0.092,0.035-0.138,0.052
	c-0.208-0.226-0.51-0.375-0.92-0.369c-29.262,0.431-58.521,0.512-87.785,0.092C81.354,2.657,52.155,0.855,22.902,0
	c-1.372-0.04-1.337,2.002,0,2.109c13.838,1.117,27.734,1.953,41.66,2.582C64.57,4.799,64.613,4.908,64.714,5
	C81.812,20.668,83.383,39.75,78.627,61.406c-8.678,4.583-17.293,9.275-25.787,14.157c-0.946,0.544-0.111,1.946,0.851,1.455
	c8.982-4.597,17.922-9.27,26.86-13.947c14.751,8.352,23.305,22.762,23.453,39.81c0.002,0.264,0.099,0.459,0.238,0.598
	c-7.286,6.859-14.82,13.494-22.742,19.873c-0.762,0.613,0.23,1.885,1.045,1.355c8.743-5.697,16.82-12.473,24.486-19.771
	c20.811,5.17,36.773,18.336,41.415,40.201c0.07,0.334,0.259,0.535,0.488,0.637l-8.899,26.732c-0.465,1.398,1.739,1.996,2.201,0.607
	c3.062-9.199,6.122-18.398,9.184-27.596c16.166-5.607,32.413-2.652,44.246,9.973c-0.104,7.793-0.207,15.584-0.31,23.375
	c-0.02,1.512,2.33,1.514,2.35,0c0.099-7.516,0.195-15.031,0.293-22.547c0.377-0.4,0.52-1.053,0.063-1.588
	c-0.013-0.016-0.027-0.029-0.04-0.045c0.274-20.961,0.551-41.922,0.819-62.883C199.212,62.845,200.624,33.681,199.682,4.739z
	 M197.911,5.651c-0.229,3.976-0.403,7.96-0.553,11.946c-1.255-0.191-2.581,0.115-3.692,0.766c1.301-4.227,2.579-8.457,3.798-12.704
	C197.612,5.656,197.762,5.654,197.911,5.651z M91.394,57.399c6.287-3.286,12.578-6.564,18.891-9.804
	c0.058,0.08,0.13,0.151,0.231,0.189c10.623,4.061,24.541,14.688,20.567,27.781c-0.085,0.277-0.04,0.509,0.077,0.684
	c-4.223,4.547-8.483,9.012-12.799,13.406C121.788,73.329,105.035,62.167,91.394,57.399z M152.854,55.56
	c2.325-2.56,4.65-5.118,6.971-7.69c7.57,0.095,14.261,4.034,17.975,10.727c-0.974,2.982-1.944,5.963-2.916,8.945
	C171.312,59.667,161.114,56.496,152.854,55.56z M173.869,70.654c-1.91,5.857-3.826,11.71-5.77,17.547l-1.961,5.896
	c-2.107-4.706-7.612-9.586-10.731-11.861c-6.09-4.446-13.335-6.761-20.81-6.477c1.977-2.207,3.945-4.407,5.909-6.58
	c3.72-4.121,7.468-8.244,11.22-12.374C161.249,58.757,169.44,61.534,173.869,70.654z M161.164,46.375
	c5.169-5.744,10.312-11.522,15.338-17.388c1.993-0.029,3.928,0.506,5.552,1.815c1.909,1.539,2.299,3.44,3.096,5.569
	c-2.215,6.557-4.376,13.131-6.526,19.708C174.912,50.014,168.217,46.337,161.164,46.375z M177.854,27.395
	c2.95-3.466,5.871-6.95,8.728-10.48c1.072-0.139,2.099,0.098,3.046,0.735c0.511,0.344,0.961,0.768,1.296,1.287
	c0.065,0.101,0.113,0.206,0.163,0.312c-1.624,4.551-3.204,9.12-4.766,13.696C185.037,29.748,181.399,27.633,177.854,27.395z
	 M185.833,14.417c-0.288-0.652-0.671-1.248-1.004-1.618c-0.243-0.271-0.519-0.506-0.807-0.718c2.493-1.238,4.977-2.489,7.446-3.768
	C189.574,10.331,187.7,12.372,185.833,14.417z M184.314,15.62c0.026,0.136,0.035,0.274,0.039,0.411
	c-3.221,3.55-6.395,7.148-9.563,10.752c-1.307-3.225-4.291-5.778-7.652-6.583c5.063-2.376,10.111-4.779,15.12-7.249
	c0.448,0.26,0.865,0.584,1.213,1.008C183.869,14.442,184.188,15,184.314,15.62z M173.326,28.431
	c-5.08,5.801-10.114,11.645-15.157,17.477c-2.199-7.184-8.435-12.936-15.854-14.138c7.279-3.423,14.596-6.794,21.895-10.201
	C168.3,22.039,171.813,24.348,173.326,28.431z M156.545,47.446c0.024,0.085,0.071,0.144,0.11,0.212
	c-2.204,2.546-4.417,5.08-6.632,7.612c0.733-9.02-9.998-15.85-17.78-18.697c2.637-1.274,5.281-2.539,7.934-3.792
	C148.023,34.454,154.25,39.604,156.545,47.446z M148.052,56.083c-0.046,0.415,0.211,0.695,0.544,0.827
	c-3.172,3.616-6.359,7.216-9.581,10.778c-1.873,2.071-3.751,4.118-5.632,6.16c2.427-11.843-10.415-25.256-21.758-26.932
	c4.865-2.493,9.734-4.982,14.633-7.418c1.488-0.74,2.988-1.464,4.484-2.191C137.788,40.683,149.043,47.125,148.052,56.083z
	 M133.215,77.302c6.663,0.074,13.011,1.604,18.728,5.175c2.62,1.637,5.053,3.642,7.135,5.929c0.446,0.489,6.666,8.09,5.809,9.09
	c-0.258,0.3-0.296,0.639-0.187,0.92l-7.865,23.628c-4.99-16.727-19.387-29.121-37.229-29.818
	C124.238,87.301,128.756,82.282,133.215,77.302z M166.833,99.207c0.076,0.004,0.154,0.003,0.237-0.023
	c11.945-3.817,24.124-0.81,29.134,11.556c0.012,0.034,0.037,0.054,0.053,0.085c-0.118,8.836-0.233,17.672-0.35,26.508
	c-9.058-11.182-23.692-16.475-37.744-12.076C161.053,116.574,163.942,107.891,166.833,99.207z M167.422,97.432
	c0.958-2.875,1.915-5.751,2.872-8.626c1.931-5.804,3.894-11.604,5.863-17.406c8.271-1.094,15.816-0.372,19.597,7.935
	c0.196,0.431,0.533,0.542,0.861,0.472c-0.025,4.001-0.052,8.001-0.106,11.995c-0.063,4.673-0.123,9.346-0.186,14.02
	C190.829,96,177.824,93.235,167.422,97.432z M176.774,69.578c1.245-3.664,2.49-7.327,3.733-10.992
	c6.268-2.194,11.901-1.745,16.187,3.611c-0.014,4.509-0.028,9.017-0.05,13.521C193.556,68.924,183.513,68.273,176.774,69.578z
	 M181.212,56.503c2.287-6.754,4.563-13.512,6.778-20.287c1.45-1.102,3.162-1.737,5-1.796c1.395-0.044,2.617,0.463,3.926,0.686
	c-0.131,7.801-0.174,15.607-0.204,23.411C193.207,54.498,186.283,54.751,181.212,56.503z M188.691,34.055
	c1.433-4.402,2.846-8.81,4.217-13.229c0.089-0.085,0.171-0.183,0.219-0.316c0.051-0.141,0.076-0.284,0.092-0.427
	c1.28-1.007,2.65-1.063,4.084-0.701c-0.157,4.537-0.263,9.079-0.349,13.623C194.549,31.711,191.147,32.567,188.691,34.055z
	 M195.941,5.987c-1.395,3.685-2.751,7.386-4.087,11.096c-0.422-0.424-0.878-0.784-1.298-1.022c-0.819-0.465-1.751-0.713-2.682-0.727
	c2.301-2.868,4.568-5.759,6.786-8.681C195.086,6.427,195.514,6.208,195.941,5.987z M193.023,5.745
	c-3.7,1.444-7.374,2.984-11.038,4.563c0.022-0.455,0.004-0.892-0.045-1.269c-0.151-1.154-0.597-2.19-1.256-3.079
	C184.801,5.894,188.914,5.824,193.023,5.745z M178.584,5.989c0.89,0.894,1.461,2.001,1.564,3.293c0.06,0.75-0.128,1.363-0.35,1.965
	c-0.06,0.023-0.116,0.049-0.161,0.086c-5.613,2.46-11.186,5.057-16.729,7.716c1.288-4.415,0.557-9.125-2.249-12.846
	C166.64,6.151,172.615,6.08,178.584,5.989z M158.917,6.219c2.913,4.146,3.637,9.363,1.508,14.021
	c-5.979,2.895-11.92,5.859-17.838,8.825c4.309-7.633,2.982-17.26-3.756-22.779C145.53,6.291,152.227,6.273,158.917,6.219z
	 M136.446,6.279c7.009,6.1,9,15.225,3.584,23.449c-0.16,0.242-0.183,0.478-0.122,0.681c-2.253,1.13-4.493,2.244-6.74,3.367
	c4.8-8.157,2.308-22.308-5.678-27.542C130.477,6.251,133.461,6.274,136.446,6.279z M125.244,6.222
	c0.045,0.121,0.121,0.238,0.266,0.328c8.188,5.134,10.558,20.15,4.974,27.805c-0.192,0.264-0.177,0.547-0.065,0.795
	c-1.321,0.659-2.65,1.33-3.969,1.983c-4.732,2.341-9.467,4.693-14.199,7.054c5.194-13.975,1.475-29.12-10.7-38.292
	C109.446,6.055,117.346,6.165,125.244,6.222z M99.615,5.861c0.02,0.119,0.069,0.234,0.182,0.33
	c11.678,9.808,16.099,24.934,10.083,39.179c-6.423,3.21-12.828,6.47-19.217,9.758c3.935-17.638,2.313-38.188-12.674-49.886
	C85.191,5.499,92.401,5.707,99.615,5.861z M66.244,4.761c3.249,0.144,6.498,0.286,9.748,0.407c1.692,2.35,3.968,4.185,5.79,6.474
	c3.134,3.943,5.294,8.399,6.74,13.225c3.08,10.271,1.791,20.869,0.209,31.259c-2.609,1.349-5.212,2.709-7.812,4.073
	C86.015,41.193,84.276,16.22,66.244,4.761z M105.779,102.018c0.801-16.51-8.995-32.615-23.851-39.667
	c2.541-1.33,5.081-2.658,7.62-3.987c14.797,5.703,28.694,14.928,26.788,32.765c-0.02,0.187,0.033,0.331,0.113,0.452
	C112.943,95.114,109.389,98.59,105.779,102.018z M108.365,103.652c3.469-3.35,6.863-6.792,10.186-10.3
	c0.048,0.018,0.092,0.041,0.146,0.048c18.289,2.333,32.7,13.991,36.951,32.208l-5.69,17.094
	C145.229,122.986,128.934,105.984,108.365,103.652z M152.088,143.512l5.576-16.756c0.021-0.004,0.037,0.002,0.059-0.002
	c7.203-1.402,14.457-1.613,21.441,0.934c2.698,0.982,5.273,2.346,7.642,3.963c2.722,1.859,5.925,6.508,9.075,7.633
	c0,0.008,0,0.014,0,0.018c-0.984-0.262-1.349,1.1-0.621,1.648c0.155,0.117,0.313,0.236,0.468,0.354
	c0.038,0.029,0.083,0.041,0.126,0.061c-0.049,3.611-0.096,7.223-0.145,10.836C184.284,140.867,167.012,136.924,152.088,143.512z"/>
</svg>
